<svg width="28" height="29" viewBox="0 0 28 29" fill="none" xmlns="http://www.w3.org/2000/svg">
<path fill-rule="evenodd" clip-rule="evenodd" d="M18.4419 21.8523C18.9949 21.5393 19.1753 20.7427 18.8083 20.234C18.706 20.0921 17.1257 18.6312 15.2964 16.9875L11.9704 13.999L15.2973 11.0101C17.127 9.36619 18.7074 7.90503 18.8093 7.76312C18.9289 7.59653 18.9947 7.35683 18.9951 7.08643C18.9956 6.71445 18.9549 6.6306 18.6296 6.33388C18.2955 6.02916 18.2193 6 17.7585 6L17.2535 6L13.1268 9.76388L9 13.5277L9 13.959C9 14.2142 9.06299 14.4772 9.15418 14.6029C9.37758 14.9112 16.5225 21.452 16.9588 21.7478C17.3877 22.0386 18.0326 22.084 18.4419 21.8523Z" fill="#424961"/>
<path fill-rule="evenodd" clip-rule="evenodd" d="M18.4419 21.8523C18.9949 21.5393 19.1753 20.7427 18.8083 20.234C18.706 20.0921 17.1257 18.6312 15.2964 16.9875L11.9704 13.999L15.2973 11.0101C17.127 9.36619 18.7074 7.90503 18.8093 7.76312C18.9289 7.59653 18.9947 7.35683 18.9951 7.08643C18.9956 6.71445 18.9549 6.6306 18.6296 6.33388C18.2955 6.02916 18.2193 6 17.7585 6L17.2535 6L13.1268 9.76388L9 13.5277L9 13.959C9 14.2142 9.06299 14.4772 9.15418 14.6029C9.37758 14.9112 16.5225 21.452 16.9588 21.7478C17.3877 22.0386 18.0326 22.084 18.4419 21.8523Z" fill="#424961"/>
<rect x="27.5" y="28.5" width="27" height="28" rx="4.5" transform="rotate(-180 27.5 28.5)" stroke="#424961"/>
</svg>
