<svg width="28" height="29" viewBox="0 0 28 29" fill="none" xmlns="http://www.w3.org/2000/svg">
<path fill-rule="evenodd" clip-rule="evenodd" d="M9.55811 6.1477C9.00514 6.46068 8.82474 7.25727 9.19166 7.76599C9.29398 7.90791 10.8743 9.3688 12.7036 11.0125L16.0296 14.001L12.7027 16.9899C10.873 18.6338 9.29256 20.095 9.19072 20.2369C9.07115 20.4035 9.00533 20.6432 9.00495 20.9136C9.00438 21.2855 9.04512 21.3694 9.37036 21.6661C9.70446 21.9708 9.78065 22 10.2415 22L10.7465 22L14.8732 18.2361L19 14.4723L19 14.041C19 13.7858 18.937 13.5228 18.8458 13.3971C18.6224 13.0888 11.4775 6.54798 11.0412 6.2522C10.6123 5.96142 9.96737 5.916 9.55811 6.1477Z" fill="#AFAFAF"/>
<rect x="27.5" y="28.5" width="27" height="28" rx="4.5" transform="rotate(-180 27.5 28.5)" stroke="#AFAFAF"/>
</svg>
